<svg id="Layer_1" data-name="Layer 1" xmlns="http://www.w3.org/2000/svg" xmlns:xlink="http://www.w3.org/1999/xlink" viewBox="0 0 192 192"><defs><style>.cls-1{fill:url(#linear-gradient);}.cls-2{fill:url(#linear-gradient-2);}.cls-3{fill:url(#linear-gradient-3);}.cls-4{fill:url(#linear-gradient-4);}.cls-5{fill:url(#linear-gradient-5);}</style><linearGradient id="linear-gradient" x1="241.68" y1="159.31" x2="17.53" y2="162.45" gradientUnits="userSpaceOnUse"><stop offset="0" stop-color="#40bad5"/><stop offset="1" stop-color="#035aa6"/></linearGradient><linearGradient id="linear-gradient-2" x1="146.51" y1="139.93" x2="103.07" y2="11.17" xlink:href="#linear-gradient"/><linearGradient id="linear-gradient-3" x1="130.4" y1="134.89" x2="43.52" y2="4.56" xlink:href="#linear-gradient"/><linearGradient id="linear-gradient-4" x1="105.57" y1="151.44" x2="18.68" y2="21.11" xlink:href="#linear-gradient"/><linearGradient id="linear-gradient-5" x1="117.98" y1="143.16" x2="31.1" y2="12.83" xlink:href="#linear-gradient"/></defs><title>android-chrome-192x192</title><polygon class="cls-1" points="185.57 188.47 129.52 188.47 92.23 133.03 146.99 134.12 185.57 188.47"/><path class="cls-2" d="M185.57,76.37a66.87,66.87,0,0,1-66.87,66.88H99.38L68.53,99.19h49.78a22.69,22.69,0,0,0,0-45.37H91.39L61.47,11.22,60.25,9.5H118.7A66.87,66.87,0,0,1,185.57,76.37Z"/><polygon class="cls-3" points="96.36 76.19 88.42 76.19 41.76 9.56 49.74 9.61 96.36 76.19"/><polygon class="cls-4" points="60.48 76.19 52.54 76.19 5.89 9.56 13.86 9.61 60.48 76.19"/><polygon class="cls-5" points="78.42 76.19 70.48 76.19 23.83 9.56 31.8 9.61 78.42 76.19"/></svg>