<svg id="Layer_1" data-name="Layer 1" xmlns="http://www.w3.org/2000/svg" xmlns:xlink="http://www.w3.org/1999/xlink" viewBox="0 0 32 32"><defs><style>.cls-1{fill:url(#linear-gradient);}.cls-2{fill:url(#linear-gradient-2);}.cls-3{fill:url(#linear-gradient-3);}.cls-4{fill:url(#linear-gradient-4);}.cls-5{fill:url(#linear-gradient-5);}</style><linearGradient id="linear-gradient" x1="40.99" y1="26.42" x2="2.2" y2="26.97" gradientUnits="userSpaceOnUse"><stop offset="0" stop-color="#40bad5"/><stop offset="1" stop-color="#035aa6"/></linearGradient><linearGradient id="linear-gradient-2" x1="24.52" y1="23.07" x2="17" y2="0.79" xlink:href="#linear-gradient"/><linearGradient id="linear-gradient-3" x1="21.73" y1="22.2" x2="6.7" y2="-0.36" xlink:href="#linear-gradient"/><linearGradient id="linear-gradient-4" x1="17.43" y1="25.06" x2="2.4" y2="2.51" xlink:href="#linear-gradient"/><linearGradient id="linear-gradient-5" x1="19.58" y1="23.63" x2="4.55" y2="1.08" xlink:href="#linear-gradient"/></defs><title>favicon-32x32</title><polygon class="cls-1" points="31.28 31.47 21.58 31.47 15.13 21.88 24.6 22.07 31.28 31.47"/><path class="cls-2" d="M31.28,12.07A11.56,11.56,0,0,1,19.71,23.64H16.36L11,16h8.61a3.93,3.93,0,0,0,0-7.85H15L9.8.8,9.59.5H19.71A11.57,11.57,0,0,1,31.28,12.07Z"/><polygon class="cls-3" points="15.84 12.04 14.47 12.04 6.39 0.51 7.77 0.52 15.84 12.04"/><polygon class="cls-4" points="9.63 12.04 8.26 12.04 0.18 0.51 1.56 0.52 9.63 12.04"/><polygon class="cls-5" points="12.73 12.04 11.36 12.04 3.29 0.51 4.67 0.52 12.73 12.04"/></svg>