<svg id="Layer_1" data-name="Layer 1" xmlns="http://www.w3.org/2000/svg" xmlns:xlink="http://www.w3.org/1999/xlink" viewBox="0 0 16 16"><defs><style>.cls-1{fill:url(#linear-gradient);}.cls-2{fill:url(#linear-gradient-2);}.cls-3{fill:url(#linear-gradient-3);}.cls-4{fill:url(#linear-gradient-4);}.cls-5{fill:url(#linear-gradient-5);}</style><linearGradient id="linear-gradient" x1="19.94" y1="13.03" x2="1.19" y2="13.29" gradientUnits="userSpaceOnUse"><stop offset="0" stop-color="#40bad5"/><stop offset="1" stop-color="#035aa6"/></linearGradient><linearGradient id="linear-gradient-2" x1="11.98" y1="11.41" x2="8.35" y2="0.64" xlink:href="#linear-gradient"/><linearGradient id="linear-gradient-3" x1="10.63" y1="10.99" x2="3.36" y2="0.09" xlink:href="#linear-gradient"/><linearGradient id="linear-gradient-4" x1="8.55" y1="12.37" x2="1.29" y2="1.47" xlink:href="#linear-gradient"/><linearGradient id="linear-gradient-5" x1="9.59" y1="11.68" x2="2.32" y2="0.78" xlink:href="#linear-gradient"/></defs><title>favicon-16x16</title><polygon class="cls-1" points="15.25 15.47 10.56 15.47 7.44 10.83 12.02 10.92 15.25 15.47"/><path class="cls-2" d="M15.25,6.09a5.6,5.6,0,0,1-5.6,5.6H8L5.46,8H9.62a1.9,1.9,0,1,0,0-3.79H7.37L4.87.64,4.76.5H9.65A5.6,5.6,0,0,1,15.25,6.09Z"/><polygon class="cls-3" points="7.78 6.08 7.12 6.08 3.22 0.51 3.88 0.51 7.78 6.08"/><polygon class="cls-4" points="4.78 6.08 4.12 6.08 0.22 0.51 0.88 0.51 4.78 6.08"/><polygon class="cls-5" points="6.28 6.08 5.62 6.08 1.72 0.51 2.38 0.51 6.28 6.08"/></svg>