<?xml version="1.0" standalone="no"?>
<!DOCTYPE svg PUBLIC "-//W3C//DTD SVG 20010904//EN"
 "http://www.w3.org/TR/2001/REC-SVG-20010904/DTD/svg10.dtd">
<svg version="1.0" xmlns="http://www.w3.org/2000/svg"
 width="956.000000pt" height="956.000000pt" viewBox="0 0 956.000000 956.000000"
 preserveAspectRatio="xMidYMid meet">
<metadata>
Created by potrace 1.11, written by Peter Selinger 2001-2013
</metadata>
<g transform="translate(0.000000,956.000000) scale(0.100000,-0.100000)"
fill="#000000" stroke="none">
<path d="M4868 9234 c-3 -3 -43 -7 -89 -9 -66 -3 -191 -14 -229 -20 -3 0 -11
-4 -19 -9 -9 -6 -12 -5 -8 1 3 5 -40 1 -96 -9 -56 -9 -119 -19 -139 -22 -20
-2 -41 -6 -45 -9 -4 -3 -24 -8 -43 -11 -46 -7 -57 -10 -200 -46 -47 -11 -92
-23 -100 -25 -8 -2 -28 -8 -45 -15 -16 -6 -31 -11 -32 -11 -2 1 -4 1 -5 0 -2
0 -10 -2 -19 -4 -27 -5 -154 -49 -159 -54 -3 -3 -9 -6 -15 -7 -24 -1 -64 -17
-61 -23 3 -4 -7 -7 -22 -7 -18 1 -26 -4 -24 -13 2 -11 0 -12 -10 -4 -10 8 -18
8 -32 -3 -11 -8 -28 -14 -38 -14 -10 0 -18 -4 -18 -10 0 -5 -7 -10 -16 -10 -9
0 -50 -16 -91 -35 -41 -19 -81 -35 -89 -35 -8 0 -14 -4 -14 -10 0 -5 -5 -10
-11 -10 -17 0 -193 -91 -201 -104 -4 -6 -8 -7 -8 -3 0 9 -92 -41 -101 -55 -3
-5 -10 -10 -15 -9 -5 0 -25 -10 -44 -22 -19 -12 -39 -24 -45 -26 -5 -2 -29
-17 -52 -32 -23 -16 -46 -29 -52 -29 -6 0 -11 -4 -11 -8 0 -5 -12 -15 -27 -23
-16 -8 -30 -16 -33 -19 -3 -3 -25 -19 -50 -35 -49 -33 -54 -36 -89 -65 -13
-11 -28 -20 -33 -20 -5 0 -6 -5 -2 -12 4 -6 3 -8 -4 -4 -6 3 -16 0 -24 -7 -7
-7 -29 -24 -48 -37 -19 -13 -39 -29 -45 -35 -5 -6 -35 -31 -65 -56 -76 -61
-111 -92 -204 -181 -44 -43 -85 -78 -90 -78 -5 0 -7 -3 -4 -6 4 -3 -11 -21
-33 -41 -21 -19 -36 -39 -33 -44 3 -5 -2 -6 -10 -3 -9 3 -16 1 -16 -4 0 -6
-27 -39 -59 -73 -33 -34 -58 -66 -55 -71 3 -5 2 -7 -3 -6 -5 2 -25 -15 -44
-37 -18 -22 -37 -41 -41 -43 -5 -2 -8 -8 -8 -13 0 -9 -21 -37 -56 -74 -12 -12
-27 -32 -34 -46 -7 -13 -22 -30 -32 -37 -10 -7 -16 -18 -13 -23 4 -5 2 -9 -3
-9 -11 0 -65 -80 -65 -97 0 -7 -3 -10 -7 -8 -8 5 -130 -175 -130 -192 0 -7 -4
-13 -9 -13 -5 0 -16 -16 -25 -35 -9 -19 -21 -37 -26 -40 -6 -3 -10 -15 -10
-26 0 -10 -4 -19 -9 -19 -13 0 -34 -57 -26 -70 3 -6 3 -10 -2 -9 -17 3 -33 -1
-31 -8 1 -5 -3 -18 -10 -30 -7 -13 -9 -23 -5 -23 4 0 3 -4 -4 -8 -9 -6 -94
-162 -98 -182 -1 -3 -10 -25 -21 -50 -10 -25 -18 -48 -16 -52 1 -5 -2 -8 -7
-8 -5 0 -12 -13 -16 -30 -4 -16 -11 -32 -16 -35 -5 -4 -9 -17 -9 -31 0 -13 -4
-24 -9 -24 -9 0 -26 -48 -23 -62 1 -5 -3 -8 -8 -8 -5 0 -9 -3 -8 -7 1 -5 -4
-24 -11 -43 -8 -19 -14 -42 -15 -50 0 -8 -4 -17 -8 -20 -4 -3 -9 -15 -11 -25
-2 -11 -7 -29 -11 -40 -5 -11 -14 -37 -22 -58 -8 -20 -14 -48 -14 -60 0 -13
-4 -27 -9 -33 -9 -10 -73 -255 -75 -289 -1 -11 -5 -26 -10 -33 -4 -7 -5 -16
-2 -19 3 -3 1 -12 -5 -20 -6 -7 -8 -13 -4 -13 4 0 2 -7 -5 -15 -9 -11 -9 -15
-1 -15 9 0 9 -5 1 -21 -7 -11 -9 -23 -6 -26 3 -3 1 -13 -3 -22 -5 -9 -11 -38
-15 -66 -8 -65 -13 -103 -20 -140 -11 -65 -25 -241 -28 -352 -2 -47 -7 -83
-13 -83 -7 0 -7 -3 0 -8 12 -8 15 -72 3 -72 -4 0 -3 -11 2 -25 6 -15 6 -26 -1
-30 -5 -4 -6 -12 -2 -18 10 -17 11 -47 1 -53 -4 -3 -5 -11 -1 -17 4 -7 8 -48
9 -92 1 -44 3 -82 4 -85 1 -3 2 -25 2 -50 0 -25 5 -48 11 -52 9 -6 8 -8 -1 -8
-7 0 -11 -3 -9 -7 6 -11 20 -123 18 -150 0 -13 3 -23 7 -23 4 0 7 -15 7 -32 0
-18 4 -55 9 -83 4 -27 9 -68 11 -89 2 -22 10 -43 17 -47 11 -7 11 -9 0 -9 -7
0 -10 -5 -7 -11 4 -5 9 -25 12 -42 3 -18 9 -37 14 -43 5 -6 6 -13 3 -16 -6 -6
26 -150 35 -158 4 -3 7 -21 9 -40 1 -19 6 -37 10 -40 4 -3 7 -9 7 -15 0 -16
27 -119 34 -130 3 -5 6 -13 7 -17 1 -5 2 -9 4 -10 2 -3 8 -27 13 -54 2 -8 10
-20 18 -25 12 -7 12 -9 -1 -9 -9 0 -11 -3 -5 -8 6 -4 25 -53 44 -109 22 -66
38 -100 45 -96 6 3 8 3 4 -2 -4 -4 -1 -23 7 -41 8 -19 11 -34 8 -34 -3 0 2
-11 11 -25 9 -13 16 -31 16 -40 0 -8 5 -15 10 -15 6 0 10 -6 10 -13 0 -7 9
-30 20 -52 11 -22 20 -45 20 -52 0 -7 4 -13 9 -13 7 0 13 -14 21 -48 1 -4 7
-14 14 -22 12 -14 21 -33 25 -55 2 -5 8 -17 16 -25 7 -8 23 -35 35 -60 12 -25
28 -55 34 -67 6 -13 14 -23 19 -23 4 0 7 -6 7 -12 0 -12 46 -87 70 -115 6 -7
8 -13 5 -13 -7 0 132 -203 214 -312 36 -49 69 -88 73 -88 4 0 8 -5 8 -12 0 -6
6 -18 14 -27 19 -20 65 -74 113 -131 98 -116 438 -442 543 -520 18 -14 47 -37
64 -52 17 -16 34 -28 38 -28 4 0 16 -10 27 -21 11 -12 29 -27 40 -33 10 -6 54
-36 98 -66 111 -79 235 -155 245 -152 4 1 8 -2 8 -8 0 -12 55 -41 64 -33 3 4
6 1 6 -5 0 -6 17 -20 37 -31 21 -10 66 -33 100 -50 34 -17 65 -36 68 -41 3 -6
15 -10 26 -10 10 0 19 -5 19 -11 0 -5 4 -7 10 -4 5 3 10 2 10 -2 0 -5 25 -17
55 -28 30 -10 55 -21 55 -25 0 -4 19 -13 43 -20 23 -8 50 -21 61 -29 10 -9 20
-15 22 -13 7 6 98 -31 106 -42 4 -6 8 -8 8 -4 0 4 24 -2 53 -13 28 -12 63 -23
77 -26 13 -2 28 -10 32 -16 4 -7 8 -8 8 -3 0 5 7 3 15 -4 8 -7 15 -10 15 -7 0
3 32 -5 70 -18 39 -13 70 -21 70 -18 0 3 6 0 14 -6 8 -6 18 -11 22 -10 5 1 16
-1 24 -4 36 -15 173 -46 181 -41 5 3 9 1 9 -4 0 -5 19 -12 43 -16 47 -7 70
-12 107 -20 47 -11 205 -38 236 -40 17 -2 37 -6 44 -11 9 -6 11 -4 5 5 -6 10
-4 11 6 4 8 -4 21 -9 28 -11 46 -6 78 -6 90 1 10 6 12 5 7 -2 -5 -8 5 -12 31
-13 67 -2 147 -8 181 -12 19 -3 32 0 32 7 0 7 3 6 8 -2 7 -9 66 -11 268 -8
142 3 268 7 280 9 11 3 57 8 102 12 77 6 114 11 120 15 1 2 14 3 30 4 30 2
126 16 157 23 53 11 71 14 97 16 15 1 28 5 28 8 0 4 17 9 38 12 20 3 54 8 75
11 20 3 42 8 47 11 9 6 23 9 79 21 13 3 32 9 42 15 10 5 22 9 26 8 4 -1 11 0
16 1 8 3 8 3 57 14 19 5 41 12 50 17 8 4 54 20 103 35 63 19 87 31 87 43 0 13
2 13 9 2 7 -10 13 -11 30 -2 11 7 21 8 21 4 0 -4 4 -3 8 2 4 6 32 19 62 29 30
11 66 26 80 33 14 7 31 13 38 13 6 0 12 5 12 10 0 6 3 9 8 9 4 -1 10 0 15 1
12 4 26 7 38 9 5 0 8 5 5 9 -3 5 0 9 7 9 21 0 97 36 97 47 0 5 3 6 7 3 6 -7
201 92 305 155 32 19 55 38 50 43 -4 5 -1 5 7 0 9 -5 19 -2 27 9 7 10 14 17
16 16 11 -5 58 26 54 36 -3 7 2 10 15 7 11 -3 21 1 25 11 3 9 10 14 14 11 4
-3 13 2 20 10 7 8 17 15 23 15 5 0 18 10 28 22 11 11 19 17 19 13 0 -4 9 2 20
15 11 13 20 20 20 16 0 -6 26 11 88 59 7 6 25 21 40 35 15 14 30 25 33 25 16
0 68 49 62 58 -3 5 -2 7 4 4 5 -3 21 4 35 16 14 12 50 42 79 67 29 25 97 88
151 141 54 52 98 94 98 92 0 -2 17 16 38 39 20 24 50 55 66 70 15 16 26 28 23
28 -3 0 9 15 26 33 63 65 117 129 117 138 0 5 7 12 15 15 8 4 15 10 15 16 0 5
10 19 23 32 12 13 29 33 37 46 8 12 20 28 25 34 23 26 66 86 61 86 -3 0 6 12
21 27 14 16 29 37 34 48 5 11 25 40 43 65 19 25 35 49 35 53 1 5 12 23 26 41
14 18 25 38 25 44 0 7 5 12 11 12 5 0 7 4 4 10 -3 6 -2 10 3 10 5 0 12 8 16
18 7 21 28 55 39 63 5 3 8 9 7 13 -3 11 33 76 42 76 5 0 8 4 8 9 0 5 33 78 73
162 66 138 105 225 127 284 28 71 35 91 36 95 0 3 4 12 7 20 19 43 35 100 29
100 -4 0 -1 4 7 9 8 5 15 25 15 44 1 19 4 33 8 31 6 -4 19 34 33 91 1 6 5 17
8 25 9 24 26 83 31 110 3 14 10 43 16 65 6 22 13 51 15 65 1 14 4 25 5 25 3 0
11 39 15 70 2 17 4 31 5 33 5 4 22 98 26 135 1 9 3 18 4 20 5 6 21 127 35 272
2 22 4 40 5 40 6 0 13 203 13 390 1 216 -6 386 -19 495 -4 30 -7 65 -7 78 -1
12 -4 22 -7 22 -3 0 -6 15 -6 33 -2 41 -13 114 -30 202 -3 17 -7 39 -9 50 -2
11 -4 22 -6 25 -2 6 -3 10 -13 73 -5 26 -12 50 -17 52 -4 3 -6 12 -2 20 3 8 0
15 -7 15 -6 0 -9 4 -5 10 3 5 -11 67 -31 137 -19 70 -37 135 -39 143 -2 8 -13
42 -25 75 -28 77 -32 90 -29 90 2 0 -4 14 -13 30 -9 17 -22 49 -29 73 -7 23
-16 42 -21 42 -5 0 -7 4 -4 8 2 4 -1 21 -9 37 -7 17 -19 46 -28 65 -34 80 -51
115 -60 121 -5 3 -8 9 -7 13 4 13 -22 66 -32 66 -5 0 -6 5 -3 11 4 5 0 18 -8
27 -9 9 -17 24 -19 32 -2 8 -5 17 -8 20 -3 3 -25 43 -49 90 -24 47 -47 87 -50
90 -3 3 -15 23 -26 44 -11 22 -24 44 -30 50 -5 6 -18 27 -29 46 -10 19 -26 41
-34 48 -9 6 -12 12 -8 12 8 0 -55 93 -66 98 -5 2 -8 10 -8 18 0 8 -7 17 -15
20 -8 4 -12 10 -9 15 3 5 -2 12 -10 15 -9 3 -16 12 -16 20 0 8 -4 14 -10 14
-5 0 -10 7 -10 16 0 10 -5 14 -16 10 -9 -3 -12 -2 -9 4 7 11 -61 110 -76 110
-5 0 -9 7 -9 15 0 7 -6 18 -13 22 -7 4 -20 18 -28 29 -15 23 -104 126 -159
184 -19 21 -51 55 -71 76 -20 22 -59 61 -88 87 -28 27 -51 53 -51 59 0 6 -3 9
-6 6 -3 -4 -25 12 -49 35 -67 65 -103 97 -108 97 -3 0 -19 12 -35 28 -69 64
-82 73 -94 66 -7 -4 -10 -4 -6 1 4 4 -2 17 -15 27 -12 11 -35 31 -52 46 -16
15 -31 26 -32 24 -9 -8 -23 0 -23 14 0 8 -4 12 -10 9 -5 -3 -10 -1 -10 4 0 6
-7 11 -15 11 -8 0 -15 4 -15 8 0 9 -132 97 -138 93 -2 -1 -11 6 -20 16 -14 16
-80 59 -127 83 -5 3 -28 17 -50 30 -22 14 -43 24 -47 22 -5 -1 -8 2 -8 6 0 4
-26 21 -57 37 -32 16 -66 36 -75 44 -10 8 -18 11 -18 7 0 -4 -13 2 -29 13 -15
11 -31 18 -35 14 -3 -3 -6 -1 -6 5 0 7 -6 12 -12 12 -7 0 -48 18 -91 40 -42
22 -80 39 -82 39 -3 0 -20 7 -38 15 -73 33 -110 46 -120 39 -5 -3 -7 -1 -4 4
4 6 -5 14 -21 18 -15 3 -40 12 -57 20 -61 26 -115 45 -115 39 0 -4 -6 -2 -12
3 -14 11 -126 49 -168 56 -14 3 -37 10 -52 16 -16 6 -28 8 -28 5 0 -4 -6 -2
-12 4 -7 5 -26 13 -43 16 -27 6 -65 14 -90 19 -5 2 -14 5 -20 8 -5 4 -20 5
-32 4 -13 -1 -23 3 -23 8 0 5 -9 7 -20 4 -11 -3 -20 -1 -20 3 0 5 -8 7 -17 5
-10 -1 -22 0 -28 3 -5 3 -16 7 -25 8 -8 1 -28 5 -45 9 -16 3 -46 8 -65 10 -19
2 -35 4 -35 5 0 2 -37 9 -80 15 -22 3 -55 7 -73 9 -18 3 -67 8 -110 11 -42 4
-86 9 -97 11 -10 2 -23 -2 -27 -9 -5 -8 -8 -8 -8 -1 0 8 -25 12 -67 13 -38 1
-87 3 -111 5 -24 1 -45 -1 -48 -6 -3 -5 -11 -5 -17 0 -15 10 -27 10 -46 -2
-10 -6 -12 -5 -7 2 10 16 -7 15 -23 0 -8 -7 -11 -8 -8 -2 4 7 -26 10 -94 10
-54 -1 -99 -5 -99 -10 0 -5 -6 -3 -13 3 -8 6 -16 8 -19 5z m-223 -162 c-3 -3
-11 0 -18 7 -9 10 -8 11 6 5 10 -3 15 -9 12 -12z m-2717 -3357 c-3 -3 -9 2
-12 12 -6 14 -5 15 5 6 7 -7 10 -15 7 -18z m-638 -155 c0 -5 -4 -10 -10 -10
-5 0 -10 5 -10 10 0 6 5 10 10 10 6 0 10 -4 10 -10z m5125 -1760 c3 -6 -1 -7
-9 -4 -18 7 -21 14 -7 14 6 0 13 -4 16 -10z m475 -2 c0 -4 -4 -8 -9 -8 -6 0
-12 4 -15 8 -3 5 1 9 9 9 8 0 15 -4 15 -9z m804 4 c3 -5 -1 -9 -9 -9 -8 0 -15
4 -15 9 0 4 4 8 9 8 6 0 12 -4 15 -8z"/>
</g>
</svg>
