<?xml version="1.0" encoding="utf-8"?>
<!-- Generator: Adobe Illustrator 25.0.1, SVG Export Plug-In . SVG Version: 6.00 Build 0)  -->
<svg version="1.0" id="katman_1" xmlns="http://www.w3.org/2000/svg" xmlns:xlink="http://www.w3.org/1999/xlink" x="0px" y="0px"
	 viewBox="0 0 1122 812" style="enable-background:new 0 0 1122 812;" xml:space="preserve">
<style type="text/css">
	.st0{fill:#F3BA2F;}
</style>
<desc>Created with Sketch.</desc>
<g>
	
	<path id="binancedex" class="st0" d="M276.3,477.8V502l-21.1,12.4L234.7,502v-24.2l20.5,12.4L276.3,477.8z M163.4,394.1l20.5,12.4
		V448l35.3,21.1v24.2l-55.8-32.9V394.1z M347,394.1v66.4l-56.4,32.9v-24.2l35.3-21.1v-41.5L347,394.1z M290.5,361.2l21.1,12.4l0,0
		v24.2l-35.3,21.1V461l-20.5,12.4L235.4,461v-42.2l-36.6-21.1v-24.2l21.1-12.4l35.3,21.1L290.5,361.2z M198.8,415.1l20.5,12.4v24.2
		l-20.5-12.4V415.1z M311.6,415.1v24.2l-20.5,12.4v-24.2L311.6,415.1z M183.9,340.1l21.1,12.4l-21.1,12.4v24.2l-20.5-12.4v-24.2
		L183.9,340.1z M326.5,340.1l21.1,12.4v24.2l-21.1,12.4v-24.2L306,352.5L326.5,340.1z M255.2,340.1l21.1,12.4l-21.1,12.4l-20.5-12.4
		L255.2,340.1z M255.2,298.6l56.4,32.9l-20.5,12.4l-35.3-21.1l-36,21.1l-20.5-12.4L255.2,298.6z"/>
</g>
</svg>
