<svg width="14" height="16" viewBox="0 0 14 16" fill="none" xmlns="http://www.w3.org/2000/svg">
<path opacity="0.25" d="M9.45455 0H1.45455C0.654545 0 0 0.654545 0 1.45455V10.9091C0 11.3091 0.327273 11.6364 0.727273 11.6364C1.12727 11.6364 1.45455 11.3091 1.45455 10.9091V2.18182C1.45455 1.78182 1.78182 1.45455 2.18182 1.45455H9.45455C9.85455 1.45455 10.1818 1.12727 10.1818 0.727273C10.1818 0.327273 9.85455 0 9.45455 0ZM12.3636 2.90909H4.36364C3.56364 2.90909 2.90909 3.56364 2.90909 4.36364V14.5455C2.90909 15.3455 3.56364 16 4.36364 16H12.3636C13.1636 16 13.8182 15.3455 13.8182 14.5455V4.36364C13.8182 3.56364 13.1636 2.90909 12.3636 2.90909ZM11.6364 14.5455H5.09091C4.69091 14.5455 4.36364 14.2182 4.36364 13.8182V5.09091C4.36364 4.69091 4.69091 4.36364 5.09091 4.36364H11.6364C12.0364 4.36364 12.3636 4.69091 12.3636 5.09091V13.8182C12.3636 14.2182 12.0364 14.5455 11.6364 14.5455Z" fill="white"/>
</svg>
