<svg width="15" height="14" viewBox="0 0 15 14" fill="none" xmlns="http://www.w3.org/2000/svg">
<g opacity="0.25">
<path d="M10.1456 2.51213C10.3346 2.32314 10.2007 2 9.93345 2H7.33613C7.17045 2 7.03613 1.86569 7.03613 1.7V0.3C7.03613 0.134315 7.17045 0 7.33613 0H13.7361C13.9018 0 14.0361 0.134315 14.0361 0.3V6.7C14.0361 6.86569 13.9018 7 13.7361 7H12.3361C12.1704 7 12.0361 6.86569 12.0361 6.7V4.17427C12.0361 3.907 11.713 3.77315 11.524 3.96214L7.33436 8.15178C7.2172 8.26894 7.02725 8.26894 6.9101 8.15178L5.92015 7.16183C5.80299 7.04468 5.80299 6.85473 5.92015 6.73757L10.1456 2.51213Z" fill="white"/>
<path d="M6 2.24946C6 2.08378 5.86569 1.94946 5.7 1.94946H0.3C0.134315 1.94946 0 2.08378 0 2.24946V13.6495C0 13.8151 0.134315 13.9495 0.3 13.9495H11.7C11.8657 13.9495 12 13.8151 12 13.6495V8.24946C12 8.08378 11.8657 7.94946 11.7 7.94946H10.3C10.1343 7.94946 10 8.08378 10 8.24946V11.6495C10 11.8151 9.86569 11.9495 9.7 11.9495H2.3C2.13431 11.9495 2 11.8151 2 11.6495V4.24946C2 4.08378 2.13431 3.94946 2.3 3.94946H5.7C5.86569 3.94946 6 3.81515 6 3.64946V2.24946Z" fill="white"/>
</g>
</svg>
