<svg width="99" height="91" viewBox="0 0 99 91" fill="none" xmlns="http://www.w3.org/2000/svg">
<g opacity="0.5">
<path d="M98.8088 24.5346H74.7227V0H90.2066C94.9495 0 98.8088 3.86409 98.8088 8.61272V24.5346Z" fill="#443D86"/>
<path d="M72.8629 90.2241H19.4829C14.5076 90.2241 10.4623 86.1737 10.4623 81.1923V8.98516C10.4623 4.00375 14.4611 0 19.4364 0H82.0696V81.0061C82.0696 86.0806 77.9312 90.2241 72.8629 90.2241Z" fill="url(#paint0_linear)"/>
<path d="M95.9258 24.5344H82.0228V10.1954C82.0228 6.37789 85.1382 3.25869 88.951 3.25869C92.7639 3.25869 95.8793 6.37789 95.8793 10.1954V24.5344H95.9258Z" fill="#29235E"/>
<path d="M68.1664 90.1774L10.3226 90.224C4.64982 90.2706 0 86.2203 0 81.2388V70.438L57.6113 70.3915V80.9595C57.6113 86.034 62.3541 90.1774 68.1664 90.1774Z" fill="url(#paint1_linear)"/>
<path d="M66.725 27.5142H22.3192C20.6918 27.5142 19.3433 26.1641 19.3433 24.5347C19.3433 22.9053 20.6918 21.5552 22.3192 21.5552H66.725C68.3525 21.5552 69.7009 22.9053 69.7009 24.5347C69.7009 26.1641 68.3525 27.5142 66.725 27.5142Z" fill="#120136"/>
<path d="M66.9575 41.6203H22.5517C20.9243 41.6203 19.5758 40.2702 19.5758 38.6407C19.5758 37.0113 20.9243 35.6612 22.5517 35.6612H66.9575C68.585 35.6612 69.9334 37.0113 69.9334 38.6407C69.9334 40.2702 68.6315 41.6203 66.9575 41.6203Z" fill="#120136"/>
<path d="M44.8709 55.6333H22.7843C21.1568 55.6333 19.8084 54.2832 19.8084 52.6538C19.8084 51.0244 21.1568 49.6743 22.7843 49.6743H44.8709C46.4984 49.6743 47.8468 51.0244 47.8468 52.6538C47.8468 54.2832 46.5449 55.6333 44.8709 55.6333Z" fill="#120136"/>
</g>
<defs>
<linearGradient id="paint0_linear" x1="17.2204" y1="3.97397" x2="20.532" y2="78.4852" gradientUnits="userSpaceOnUse">
<stop stop-color="#443D86"/>
<stop offset="1" stop-color="#29235E"/>
</linearGradient>
<linearGradient id="paint1_linear" x1="34.2546" y1="70.18" x2="34.2546" y2="85.2186" gradientUnits="userSpaceOnUse">
<stop stop-color="#443D86"/>
<stop offset="1" stop-color="#29235E"/>
</linearGradient>
</defs>
</svg>
