<svg width="18" height="13" viewBox="0 0 18 13" fill="none" xmlns="http://www.w3.org/2000/svg">
<path opacity="0.5" d="M2.9225 6.14939L0.1425 8.93939C-0.0475 9.13939 -0.0475 9.44939 0.1425 9.64939L2.9225 12.4394C3.2325 12.7594 3.7725 12.5294 3.7725 12.0894V10.2894H9.7825C10.3325 10.2894 10.7825 9.83939 10.7825 9.28939C10.7825 8.73939 10.3325 8.28939 9.7825 8.28939H3.7725V6.49939C3.7725 6.04939 3.2325 5.82939 2.9225 6.14939ZM17.4325 2.93939L14.6525 0.149395C14.3425 -0.170605 13.8025 0.0593945 13.8025 0.499395V2.28939H7.7825C7.2325 2.28939 6.7825 2.73939 6.7825 3.28939C6.7825 3.83939 7.2325 4.28939 7.7825 4.28939H13.7925V6.07939C13.7925 6.52939 14.3325 6.74939 14.6425 6.42939L17.4225 3.63939C17.6225 3.44939 17.6225 3.12939 17.4325 2.93939Z" fill="white"/>
</svg>
