<svg width="21" height="20" viewBox="0 0 21 20" fill="none" xmlns="http://www.w3.org/2000/svg">
<path d="M20.0297 19.9505H13.7787L9.62305 13.7699L15.7244 13.8931L20.0297 19.9505Z" fill="white"/>
<path d="M20.03 7.45721C20.03 9.51741 19.1936 11.3839 17.8466 12.731C16.4995 14.078 14.633 14.9144 12.5728 14.9144H10.4158L6.97329 10.0016H12.52C13.2155 10.0016 13.8494 9.7199 14.3072 9.26208C14.7651 8.80426 15.0468 8.17035 15.0468 7.47481C15.0468 6.07494 13.911 4.94799 12.52 4.94799H9.51772L6.18091 0.202496L6.04004 0.00880645H12.5552C16.6932 2.18488e-06 20.03 3.33681 20.03 7.45721Z" fill="white"/>
<path d="M10.0808 7.4308H9.20039L3.99707 0L4.8863 0.00881286L10.0808 7.4308Z" fill="white"/>
<path d="M6.08374 7.4308H5.19451L0 0L0.889231 0.00881286L6.08374 7.4308Z" fill="white"/>
<path d="M8.08179 7.4308H7.20136L1.99805 0L2.88727 0.00881286L8.08179 7.4308Z" fill="white"/>
</svg>
