<svg width="48" height="48" viewBox="0 0 48 48" fill="none" xmlns="http://www.w3.org/2000/svg">
<rect width="48" height="48" rx="24" fill="white"/>
<path d="M24 4C12.972 4 4 12.972 4 24C4 35.028 12.972 44 24 44C35.028 44 44 35.028 44 24C44 12.972 35.028 4 24 4ZM8 24C8 20.308 9.268 16.916 11.376 14.206L33.794 36.624C30.9981 38.8117 27.5501 40.0002 24 40C15.178 40 8 32.822 8 24ZM36.624 33.794L14.206 11.376C17.0021 9.18859 20.4499 8.00011 24 8C32.822 8 40 15.178 40 24C39.999 27.5499 38.8106 30.9975 36.624 33.794Z" fill="#808080"/>
</svg>
