<svg width="16" height="16" viewBox="0 0 16 16" fill="none" xmlns="http://www.w3.org/2000/svg">
<circle cx="8" cy="8" r="8" fill="white"/>
<path d="M7.28855 11.8031C7.28855 11.3613 7.64673 11.0031 8.08855 11.0031C8.53038 11.0031 8.88855 11.3613 8.88855 11.8031C8.88855 12.245 8.53038 12.6031 8.08855 12.6031C7.64673 12.6031 7.28855 12.245 7.28855 11.8031ZM8.57655 3.03514C6.92855 2.79514 5.47255 3.81114 5.03255 5.26714C4.88855 5.73114 5.24055 6.20314 5.72855 6.20314H5.88855C6.21655 6.20314 6.48055 5.97114 6.59255 5.66714C6.84855 4.95514 7.60855 4.46714 8.43255 4.64314C9.19255 4.80314 9.75255 5.54714 9.68855 6.32314C9.60879 7.39203 8.39961 7.62579 7.73435 8.61845C7.73059 8.62407 7.72854 8.63102 7.72382 8.63588C7.72011 8.63971 7.71938 8.64567 7.71671 8.65029C7.70999 8.66191 7.70327 8.66971 7.69655 8.68314C7.62455 8.80314 7.55255 8.93914 7.49655 9.08314C7.4951 9.08749 7.49339 9.09158 7.49151 9.0955C7.4747 9.13053 7.46084 9.16628 7.44855 9.20314C7.42527 9.2691 7.40387 9.33836 7.38481 9.41113C7.27287 9.83855 7.64673 10.2031 8.08855 10.2031C8.53038 10.2031 8.8705 9.82628 9.06788 9.43099C9.0821 9.40251 9.09702 9.37456 9.11255 9.34714C9.12855 9.32314 9.13655 9.29914 9.15255 9.27514C9.21655 9.16314 9.29655 9.05914 9.37655 8.96314C9.38455 8.95514 9.39255 8.93914 9.40055 8.93114C9.48055 8.83514 9.56855 8.74714 9.66455 8.65914C10.4326 7.93114 11.4726 7.33914 11.2566 5.81114C11.0646 4.41914 9.96855 3.24314 8.57655 3.03514Z" fill="#120136"/>
</svg>
